<svg width="343" height="129" viewBox="0 0 343 129" fill="none" xmlns="http://www.w3.org/2000/svg">
<g clip-path="url(#clip0)">
<path d="M0 8C0 3.58173 3.58172 0 8 0H335C339.418 0 343 3.58172 343 8V121C343 125.418 339.418 129 335 129H7.99999C3.58172 129 0 125.418 0 121V8Z" fill="#5F5CEC"/>
<path d="M0 8C0 3.58173 3.58172 0 8 0H335C339.418 0 343 3.58172 343 8V121C343 125.418 339.418 129 335 129H7.99999C3.58172 129 0 125.418 0 121V8Z" fill="url(#paint0_linear)" fill-opacity="0.2"/>
<path d="M25.0508 44.0073V74H16.5474V44.0073H25.0508ZM50.627 44.0073V74H42.1235V44.0073H50.627ZM61.2397 62.2886V55.6968C61.2397 51.8589 62.1919 48.8267 64.0962 46.6001C66.0151 44.3735 68.6226 43.2603 71.9185 43.2603C75.2144 43.2603 77.8218 44.3735 79.7407 46.6001C81.6597 48.8267 82.6191 51.8589 82.6191 55.6968V62.2886C82.6191 66.1265 81.6597 69.166 79.7407 71.4072C77.8218 73.6338 75.2144 74.7471 71.9185 74.7471C68.6226 74.7471 66.0151 73.6338 64.0962 71.4072C62.1919 69.166 61.2397 66.1265 61.2397 62.2886ZM69.7871 53.939V64.0464C69.7871 65.8774 70.4976 66.793 71.9185 66.793C73.354 66.793 74.0718 65.8774 74.0718 64.0464V53.939C74.0718 52.1079 73.354 51.1924 71.9185 51.1924C70.4976 51.1924 69.7871 52.1079 69.7871 53.939ZM86.8159 62.2886V55.6968C86.8159 51.8589 87.7681 48.8267 89.6724 46.6001C91.5913 44.3735 94.1987 43.2603 97.4946 43.2603C100.791 43.2603 103.398 44.3735 105.317 46.6001C107.236 48.8267 108.195 51.8589 108.195 55.6968V62.2886C108.195 66.1265 107.236 69.166 105.317 71.4072C103.398 73.6338 100.791 74.7471 97.4946 74.7471C94.1987 74.7471 91.5913 73.6338 89.6724 71.4072C87.7681 69.166 86.8159 66.1265 86.8159 62.2886ZM95.3633 53.939V64.0464C95.3633 65.8774 96.0737 66.793 97.4946 66.793C98.9302 66.793 99.6479 65.8774 99.6479 64.0464V53.939C99.6479 52.1079 98.9302 51.1924 97.4946 51.1924C96.0737 51.1924 95.3633 52.1079 95.3633 53.939ZM112.392 62.2886V55.6968C112.392 51.8589 113.344 48.8267 115.249 46.6001C117.167 44.3735 119.775 43.2603 123.071 43.2603C126.367 43.2603 128.974 44.3735 130.893 46.6001C132.812 48.8267 133.771 51.8589 133.771 55.6968V62.2886C133.771 66.1265 132.812 69.166 130.893 71.4072C128.974 73.6338 126.367 74.7471 123.071 74.7471C119.775 74.7471 117.167 73.6338 115.249 71.4072C113.344 69.166 112.392 66.1265 112.392 62.2886ZM120.939 53.939V64.0464C120.939 65.8774 121.65 66.793 123.071 66.793C124.506 66.793 125.224 65.8774 125.224 64.0464V53.939C125.224 52.1079 124.506 51.1924 123.071 51.1924C121.65 51.1924 120.939 52.1079 120.939 53.939ZM137.968 62.2886V55.6968C137.968 51.8589 138.92 48.8267 140.825 46.6001C142.744 44.3735 145.351 43.2603 148.647 43.2603C151.943 43.2603 154.55 44.3735 156.469 46.6001C158.388 48.8267 159.348 51.8589 159.348 55.6968V62.2886C159.348 66.1265 158.388 69.166 156.469 71.4072C154.55 73.6338 151.943 74.7471 148.647 74.7471C145.351 74.7471 142.744 73.6338 140.825 71.4072C138.92 69.166 137.968 66.1265 137.968 62.2886ZM146.516 53.939V64.0464C146.516 65.8774 147.226 66.793 148.647 66.793C150.083 66.793 150.8 65.8774 150.8 64.0464V53.939C150.8 52.1079 150.083 51.1924 148.647 51.1924C147.226 51.1924 146.516 52.1079 146.516 53.939Z" fill="white"/>
<path d="M433 213.5C433 293.857 368.977 359 290 359C211.023 359 147 293.857 147 213.5C147 133.143 211.023 68 290 68C368.977 68 433 133.143 433 213.5Z" fill="#7371F1"/>
<path opacity="0.8" d="M19.204 96.004C18.532 97.828 17.416 99.616 16.24 100.768C16.408 100.972 16.648 101.428 16.744 101.644C17.152 101.2 17.572 100.708 17.956 100.156V106.888H18.808V98.824C19.276 98.008 19.696 97.144 20.044 96.256L19.204 96.004ZM21.388 101.068C21.064 102.484 20.5 103.912 19.744 104.824C19.96 104.944 20.344 105.172 20.512 105.316C21.244 104.32 21.88 102.808 22.264 101.236L21.388 101.068ZM26.464 99.088C26.368 99.7 26.26 100.336 26.188 100.768L26.932 100.912C27.088 100.276 27.304 99.244 27.46 98.368L26.848 98.224L26.704 98.26H21.844C22.084 97.6 22.3 96.904 22.48 96.208L21.604 96.016C21.208 97.768 20.512 99.484 19.636 100.588C19.828 100.72 20.2 101.02 20.344 101.152C20.776 100.588 21.172 99.88 21.508 99.088H23.332V105.832C23.332 105.988 23.284 106.036 23.128 106.036C22.972 106.036 22.456 106.048 21.892 106.024C22.012 106.276 22.156 106.672 22.204 106.924C22.96 106.924 23.464 106.9 23.788 106.744C24.1 106.6 24.208 106.336 24.208 105.832V99.088H26.464ZM25.084 101.236C25.72 102.496 26.32 104.176 26.512 105.268L27.364 104.98C27.16 103.888 26.548 102.244 25.864 100.972L25.084 101.236ZM34.912 105.184H35.824V98.98C36.1 98.56 36.328 98.116 36.556 97.66H39.088V96.784H31.924V97.66H35.56C34.588 99.568 33.112 101.188 31.396 102.244C31.6 102.412 31.948 102.772 32.068 102.952C33.1 102.256 34.072 101.344 34.912 100.288V105.184ZM36.112 100.168C36.976 101.032 38.116 102.22 38.668 102.928L39.328 102.292C38.764 101.62 37.6 100.468 36.736 99.64L36.112 100.168ZM31.588 98.116C31.192 97.576 30.364 96.748 29.716 96.148L29.032 96.628C29.692 97.252 30.484 98.128 30.856 98.68L31.588 98.116ZM31 100H28.54V100.876H30.124V104.596C29.596 104.812 28.984 105.364 28.348 106.096L29.008 106.948C29.584 106.12 30.136 105.364 30.52 105.364C30.784 105.364 31.192 105.784 31.684 106.12C32.56 106.648 33.556 106.792 35.128 106.792C36.316 106.792 38.512 106.708 39.364 106.66C39.376 106.384 39.532 105.916 39.64 105.664C38.452 105.808 36.628 105.916 35.14 105.916C33.748 105.916 32.704 105.82 31.912 105.316C31.492 105.052 31.24 104.824 31 104.668V100ZM48.964 101.752H43.96V100.54H48.964V101.752ZM43.96 103.78V102.52H48.964V103.78H43.96ZM51.244 98.344V97.504H45.136C45.316 97.072 45.46 96.616 45.604 96.172L44.716 95.956C44.572 96.472 44.392 96.988 44.188 97.504H40.804V98.344H43.816C43.048 99.928 41.956 101.368 40.516 102.34C40.696 102.508 40.972 102.832 41.092 103.024C41.848 102.496 42.508 101.848 43.084 101.14V106.912H43.96V104.548H48.964V105.796C48.964 105.976 48.892 106.036 48.688 106.048C48.472 106.048 47.752 106.06 46.96 106.024C47.08 106.276 47.212 106.636 47.248 106.9C48.268 106.9 48.94 106.888 49.336 106.744C49.72 106.6 49.84 106.336 49.84 105.796V99.736H44.056C44.32 99.292 44.56 98.812 44.788 98.344H51.244ZM55.084 95.992C54.568 96.832 53.5 97.84 52.564 98.452C52.708 98.632 52.924 98.968 53.02 99.172C54.076 98.464 55.228 97.336 55.924 96.316L55.084 95.992ZM55.288 98.62C54.604 99.856 53.452 101.08 52.384 101.86C52.54 102.076 52.78 102.532 52.864 102.736C53.332 102.364 53.8 101.908 54.244 101.416V106.912H55.108V100.396C55.468 99.928 55.804 99.436 56.068 98.932L55.288 98.62ZM57.004 103.552C57.556 104.176 58.156 105.076 58.408 105.652L59.164 105.208C58.9 104.632 58.276 103.768 57.724 103.144L57.004 103.552ZM63.496 100.672V99.844H60.148V98.32H62.872V97.504H60.148V96.016H59.272V97.504H56.644V98.32H59.272V99.844H55.948V100.672H60.94V101.992H56.08V102.808H60.94V105.832C60.94 106 60.88 106.048 60.688 106.06C60.508 106.072 59.848 106.072 59.128 106.048C59.248 106.3 59.38 106.648 59.416 106.9C60.352 106.9 60.952 106.9 61.324 106.756C61.696 106.612 61.816 106.372 61.816 105.832V102.808H63.412V101.992H61.816V100.672H63.496ZM70.372 98.692V104.296H71.176V99.376H74.188V104.272H75.016V98.692H72.7C72.856 98.308 73.024 97.84 73.192 97.42H75.364V96.628H70.072V97.42H72.352C72.22 97.828 72.052 98.32 71.908 98.692H70.372ZM69.988 99.496C69.52 98.812 68.524 97.732 67.672 96.904C67.78 96.652 67.888 96.412 67.984 96.172L67.204 95.944C66.676 97.36 65.656 98.944 64.444 99.964C64.636 100.096 64.924 100.348 65.056 100.504C65.956 99.712 66.712 98.692 67.312 97.6C68.116 98.428 68.992 99.46 69.436 100.12L69.988 99.496ZM66.484 99.448C66.916 99.88 67.42 100.492 67.66 100.888L68.26 100.468C68.02 100.096 67.516 99.532 67.072 99.1L66.484 99.448ZM68.908 101.32L68.764 101.368H65.248V102.16H68.356C67.984 102.964 67.42 103.912 66.952 104.572C66.628 104.272 66.316 103.996 66.016 103.744L65.428 104.2C66.328 104.98 67.408 106.084 67.924 106.792L68.56 106.276C68.32 105.952 67.936 105.532 67.516 105.112C68.152 104.212 69.004 102.82 69.472 101.68L68.908 101.32ZM72.316 99.916C72.28 104.068 72.148 105.52 69.304 106.348C69.472 106.504 69.676 106.792 69.748 106.984C72.796 106.036 73.036 104.308 73.072 99.916H72.316ZM72.7 104.848C73.48 105.472 74.5 106.36 74.992 106.912L75.544 106.36C75.052 105.82 74.02 104.968 73.228 104.38L72.7 104.848ZM80.728 99.136H78.388V97.54H80.728V99.136ZM78.388 102.412H80.728V103.888C79.924 104.008 79.12 104.128 78.388 104.224V102.412ZM80.728 101.596H78.388V99.928H80.728V101.596ZM82.432 97.54V96.712H76.612V97.54H77.548V104.344C77.116 104.404 76.72 104.452 76.384 104.488L76.54 105.388C77.68 105.196 79.216 104.968 80.728 104.716V106.888H81.592V97.54H82.432ZM86.584 97.564L86.416 97.6H82.132V98.476H86.176C85.9 100.24 85.384 101.74 84.688 102.964C84.004 101.692 83.524 100.18 83.212 98.524L82.36 98.68C82.756 100.648 83.32 102.388 84.148 103.804C83.428 104.788 82.576 105.532 81.628 106.024C81.82 106.192 82.084 106.516 82.216 106.744C83.128 106.216 83.956 105.508 84.664 104.608C85.312 105.508 86.104 106.24 87.052 106.78C87.196 106.552 87.484 106.216 87.688 106.048C86.692 105.544 85.876 104.776 85.216 103.816C86.176 102.292 86.848 100.3 87.16 97.732L86.584 97.564ZM92.416 101.188H89.896V98.68H92.416V101.188ZM89.896 104.86V101.98H92.416V104.86H89.896ZM90.904 95.932C90.82 96.496 90.604 97.3 90.424 97.876H89.08V106.612H89.896V105.664H93.232V97.876H91.24C91.444 97.36 91.66 96.7 91.864 96.112L90.904 95.932ZM99.1 97.84H95.512C95.716 97.276 95.884 96.7 96.028 96.112L95.176 95.908C94.792 97.552 94.144 99.208 93.34 100.264C93.532 100.384 93.916 100.624 94.072 100.768C94.492 100.204 94.864 99.472 95.2 98.668H98.248C98.092 103.444 97.912 105.268 97.516 105.688C97.396 105.844 97.264 105.868 97.024 105.868C96.748 105.868 96.028 105.868 95.248 105.796C95.416 106.048 95.524 106.408 95.548 106.672C96.22 106.708 96.904 106.732 97.324 106.684C97.732 106.648 98.008 106.54 98.272 106.204C98.752 105.616 98.908 103.768 99.1 98.296V97.84ZM97.204 103.24C96.82 102.532 95.992 101.38 95.32 100.528L94.624 100.936C95.284 101.8 96.088 102.988 96.448 103.708L97.204 103.24ZM107.5 103.396V104.932H104.584V103.396H107.5ZM108.316 105.628V102.7H103.792V106.36H104.584V105.628H108.316ZM104.68 99.172C104.572 98.824 104.356 98.32 104.116 97.912H107.86C107.692 98.32 107.44 98.824 107.236 99.172H104.68ZM111.16 97.912V97.096H106.408V95.968H105.508V97.096H100.864V97.912H103.156C103.36 98.284 103.588 98.788 103.72 99.172H101.368V106.9H102.208V99.952H104.356C104.236 101.068 103.804 101.62 102.292 101.932C102.448 102.076 102.652 102.376 102.724 102.556C104.476 102.136 105.016 101.392 105.16 99.952H106.588V101.152C106.588 101.896 106.792 102.088 107.632 102.088H108.868C109.504 102.088 109.72 101.848 109.804 100.888C109.576 100.84 109.252 100.732 109.12 100.612C109.084 101.32 109.036 101.404 108.772 101.404H107.728C107.428 101.404 107.38 101.38 107.38 101.14V99.952H109.888V105.808C109.888 106 109.828 106.06 109.624 106.06C109.408 106.072 108.688 106.084 107.908 106.048C108.04 106.276 108.172 106.684 108.208 106.912C109.192 106.912 109.852 106.9 110.248 106.768C110.632 106.624 110.752 106.336 110.752 105.808V99.172H108.22C108.436 98.812 108.676 98.368 108.904 97.912H111.16ZM120.4 99.592H115.636V97.324H120.4V99.592ZM121.3 96.472H114.772V100.444H121.3V96.472ZM116.392 102.568V105.412H113.884V102.568H116.392ZM113.032 106.924H113.884V106.276H116.392V106.816H117.268V101.704H113.032V106.924ZM119.44 105.412V102.568H122.164V105.412H119.44ZM118.576 101.704V106.924H119.44V106.276H122.164V106.84H123.04V101.704H118.576ZM125.884 107.284C127.144 106.84 127.96 105.856 127.96 104.56C127.96 103.72 127.6 103.18 126.94 103.18C126.448 103.18 126.028 103.48 126.028 104.044C126.028 104.608 126.436 104.896 126.928 104.896C127 104.896 127.06 104.896 127.132 104.884C127.072 105.7 126.544 106.264 125.62 106.648L125.884 107.284ZM139.708 97.996C139.336 97.516 138.52 96.772 137.896 96.244L137.32 96.772C137.944 97.336 138.736 98.116 139.096 98.62L139.708 97.996ZM139.192 104.824V99.712H136.54V100.564H138.328V104.92C138.328 105.448 137.992 105.808 137.764 105.94C137.92 106.12 138.148 106.492 138.232 106.696C138.412 106.468 138.724 106.204 140.728 104.656C140.632 104.488 140.476 104.152 140.416 103.912L139.192 104.824ZM141.928 104.416V103.444H145.672V104.416H141.928ZM145.672 101.896V102.82H141.928V101.896H145.672ZM146.524 101.2H141.088V106.912H141.928V105.064H145.672V105.904C145.672 106.06 145.624 106.108 145.444 106.108C145.3 106.12 144.724 106.12 144.112 106.096C144.22 106.324 144.34 106.648 144.376 106.864C145.228 106.876 145.756 106.864 146.104 106.732C146.428 106.6 146.524 106.372 146.524 105.916V101.2ZM144.232 99.832V98.992H146.752V98.344H144.232V97.588H147.112V96.904H144.232V95.968H143.356V96.904H140.596V97.588H143.356V98.344H140.884V98.992H143.356V99.832H140.236V100.516H147.46V99.832H144.232ZM150.82 105.076C152.776 105.508 155.332 106.336 156.604 106.984L157.096 106.192C155.752 105.556 153.184 104.776 151.264 104.392L150.82 105.076ZM151.924 102.136C153.136 102.46 154.696 103.06 155.488 103.504L155.944 102.736C155.116 102.292 153.556 101.74 152.344 101.452L151.924 102.136ZM151.108 97.3H157.372V99.232H151.096C151.108 99.016 151.108 98.824 151.108 98.632V97.3ZM158.26 100.084V96.448H150.196V98.62C150.196 100.312 150.016 102.604 148.468 104.248C148.66 104.38 149.02 104.728 149.152 104.92C150.424 103.576 150.892 101.704 151.048 100.084H155.572C156.244 102.124 157.432 103.864 158.956 104.764C159.1 104.536 159.376 104.2 159.592 104.032C158.188 103.3 157.084 101.776 156.46 100.084H158.26ZM161.08 101.572C161.392 100.696 161.608 99.328 161.68 98.356L160.996 98.272C160.912 99.232 160.696 100.54 160.384 101.32L161.08 101.572ZM162.076 106.912H162.952V95.956H162.076V106.912ZM164.536 100.06C164.392 99.508 163.984 98.584 163.612 97.876L162.988 98.164C163.336 98.872 163.732 99.808 163.864 100.384L164.536 100.06ZM167.848 98.704H169.636V101.44H167.788C167.836 100.924 167.848 100.42 167.848 99.94V98.704ZM171.544 102.292V101.44H170.512V97.864H167.848V95.956H166.96V97.864H164.62V98.704H166.96V99.94C166.96 100.42 166.948 100.924 166.9 101.44H163.972V102.292H166.78C166.48 103.756 165.688 105.232 163.588 106.276C163.792 106.444 164.08 106.78 164.212 106.972C166.216 105.868 167.14 104.38 167.536 102.88C168.22 104.752 169.336 106.228 171.004 106.96C171.148 106.696 171.424 106.324 171.64 106.132C169.972 105.52 168.82 104.068 168.184 102.292H171.544ZM178.372 98.692V104.296H179.176V99.376H182.188V104.272H183.016V98.692H180.7C180.856 98.308 181.024 97.84 181.192 97.42H183.364V96.628H178.072V97.42H180.352C180.22 97.828 180.052 98.32 179.908 98.692H178.372ZM177.988 99.496C177.52 98.812 176.524 97.732 175.672 96.904C175.78 96.652 175.888 96.412 175.984 96.172L175.204 95.944C174.676 97.36 173.656 98.944 172.444 99.964C172.636 100.096 172.924 100.348 173.056 100.504C173.956 99.712 174.712 98.692 175.312 97.6C176.116 98.428 176.992 99.46 177.436 100.12L177.988 99.496ZM174.484 99.448C174.916 99.88 175.42 100.492 175.66 100.888L176.26 100.468C176.02 100.096 175.516 99.532 175.072 99.1L174.484 99.448ZM176.908 101.32L176.764 101.368H173.248V102.16H176.356C175.984 102.964 175.42 103.912 174.952 104.572C174.628 104.272 174.316 103.996 174.016 103.744L173.428 104.2C174.328 104.98 175.408 106.084 175.924 106.792L176.56 106.276C176.32 105.952 175.936 105.532 175.516 105.112C176.152 104.212 177.004 102.82 177.472 101.68L176.908 101.32ZM180.316 99.916C180.28 104.068 180.148 105.52 177.304 106.348C177.472 106.504 177.676 106.792 177.748 106.984C180.796 106.036 181.036 104.308 181.072 99.916H180.316ZM180.7 104.848C181.48 105.472 182.5 106.36 182.992 106.912L183.544 106.36C183.052 105.82 182.02 104.968 181.228 104.38L180.7 104.848ZM188.728 99.136H186.388V97.54H188.728V99.136ZM186.388 102.412H188.728V103.888C187.924 104.008 187.12 104.128 186.388 104.224V102.412ZM188.728 101.596H186.388V99.928H188.728V101.596ZM190.432 97.54V96.712H184.612V97.54H185.548V104.344C185.116 104.404 184.72 104.452 184.384 104.488L184.54 105.388C185.68 105.196 187.216 104.968 188.728 104.716V106.888H189.592V97.54H190.432ZM194.584 97.564L194.416 97.6H190.132V98.476H194.176C193.9 100.24 193.384 101.74 192.688 102.964C192.004 101.692 191.524 100.18 191.212 98.524L190.36 98.68C190.756 100.648 191.32 102.388 192.148 103.804C191.428 104.788 190.576 105.532 189.628 106.024C189.82 106.192 190.084 106.516 190.216 106.744C191.128 106.216 191.956 105.508 192.664 104.608C193.312 105.508 194.104 106.24 195.052 106.78C195.196 106.552 195.484 106.216 195.688 106.048C194.692 105.544 193.876 104.776 193.216 103.816C194.176 102.292 194.848 100.3 195.16 97.732L194.584 97.564Z" fill="white" fill-opacity="0.9"/>
<path d="M22.132 25.808C21.604 25.984 20.92 26.184 20.08 26.408V28.892C20.08 29.684 19.676 30.08 18.868 30.08H17.524L17.272 28.988C17.696 29.036 18.096 29.06 18.472 29.06C18.776 29.06 18.928 28.908 18.928 28.604V26.672C18.12 26.848 17.38 26.988 16.708 27.092L16.552 25.952C17.384 25.816 18.176 25.672 18.928 25.52V23.372H16.552V22.28H18.928V21.008C18.48 21.096 17.864 21.2 17.08 21.32L16.84 20.24C18.536 20.056 20.024 19.704 21.304 19.184L21.7 20.252C21.188 20.428 20.648 20.596 20.08 20.756V22.28H22.672C22.6 21.344 22.564 20.312 22.564 19.184H23.716C23.716 20.36 23.752 21.392 23.824 22.28H27.448V23.372H23.92C23.992 24.164 24.1 24.824 24.244 25.352C24.284 25.528 24.34 25.736 24.412 25.976C24.94 25.344 25.392 24.636 25.768 23.852L26.752 24.368C26.208 25.48 25.568 26.428 24.832 27.212C25 27.58 25.14 27.852 25.252 28.028C25.612 28.572 25.888 28.844 26.08 28.844C26.24 28.844 26.396 28.22 26.548 26.972L27.556 27.5C27.252 29.212 26.812 30.068 26.236 30.068C25.724 30.068 25.184 29.712 24.616 29C24.376 28.704 24.172 28.372 24.004 28.004C23.164 28.708 22.236 29.256 21.22 29.648L20.584 28.664C21.712 28.256 22.696 27.668 23.536 26.9C23.4 26.532 23.276 26.12 23.164 25.664C22.996 25.016 22.864 24.252 22.768 23.372H20.08V25.256C20.8 25.064 21.484 24.86 22.132 24.644V25.808ZM25.036 19.292C25.876 19.82 26.6 20.36 27.208 20.912L26.38 21.728C25.876 21.2 25.172 20.632 24.268 20.024L25.036 19.292ZM32.956 21.14V29.492H31.864V28.868H29.968V29.84H28.876V21.14H30.016C30.248 20.444 30.408 19.776 30.496 19.136L31.636 19.292C31.524 19.924 31.348 20.54 31.108 21.14H32.956ZM29.968 27.812H31.864V25.448H29.968V27.812ZM29.968 24.428H31.864V22.22H29.968V24.428ZM35.116 24.02C35.94 25.036 36.548 25.896 36.94 26.6L36.04 27.236C35.616 26.5 35 25.62 34.192 24.596L35.116 24.02ZM39.148 21.152C39.148 25.296 39.088 27.848 38.968 28.808C38.848 29.672 38.276 30.104 37.252 30.104C37.068 30.104 36.644 30.084 35.98 30.044L35.704 29C36.408 29.032 36.864 29.048 37.072 29.048C37.552 29.048 37.828 28.796 37.9 28.292C37.964 27.764 38.008 25.752 38.032 22.256H35.02C34.668 23 34.276 23.66 33.844 24.236L33.16 23.336C33.96 22.168 34.504 20.764 34.792 19.124L35.92 19.268C35.808 19.876 35.648 20.504 35.44 21.152H39.148ZM46.264 20.78V29.732H45.196V29.024H41.92V29.732H40.852V20.78H43V19.112H44.116V20.78H46.264ZM41.92 28.004H43V25.316H41.92V28.004ZM44.116 28.004H45.196V25.316H44.116V28.004ZM41.92 24.308H43V21.812H41.92V24.308ZM44.116 21.812V24.308H45.196V21.812H44.116ZM47.128 19.712H51.16V20.54C50.792 21.812 50.404 22.952 49.996 23.96C50.828 25.152 51.252 26.128 51.268 26.888C51.268 27.576 51.116 28.052 50.812 28.316C50.492 28.596 49.852 28.736 48.892 28.736L48.568 27.584C49.048 27.64 49.392 27.668 49.6 27.668C49.856 27.644 50.024 27.584 50.104 27.488C50.168 27.392 50.204 27.192 50.212 26.888C50.196 26.144 49.748 25.168 48.868 23.96C49.252 23.072 49.624 21.996 49.984 20.732H48.208V30.248H47.128V19.712ZM52.636 19.544H63.364V20.528H59.836V21.308H62.5V24.116H53.5V21.308H56.164V20.528H52.636V19.544ZM58.756 21.308V20.528H57.256V21.308H58.756ZM61.408 23.18V22.244H59.836V23.18H61.408ZM58.756 23.18V22.244H57.256V23.18H58.756ZM56.164 23.18V22.244H54.592V23.18H56.164ZM54.028 24.824H62.056V25.76H54.028V24.824ZM52.828 26.42H63.172V27.392H58.684V29.012C58.684 29.796 58.276 30.188 57.46 30.188H56.38L56.152 29.18C56.528 29.22 56.844 29.24 57.1 29.24C57.42 29.24 57.58 29.08 57.58 28.76V27.392H52.828V26.42ZM60.556 27.632C61.604 28.168 62.516 28.724 63.292 29.3L62.5 30.092C61.876 29.564 60.976 28.984 59.8 28.352L60.556 27.632ZM56.428 28.328C55.628 29 54.644 29.588 53.476 30.092L52.792 29.204C53.936 28.764 54.9 28.248 55.684 27.656L56.428 28.328Z" fill="white"/>
</g>
<defs>
<linearGradient id="paint0_linear" x1="16.5" y1="167.5" x2="190" y2="64" gradientUnits="userSpaceOnUse">
<stop stop-color="#9896FF"/>
<stop offset="1" stop-color="#4A44E4"/>
</linearGradient>
<clipPath id="clip0">
<path d="M0 8C0 3.58173 3.58172 0 8 0H335C339.418 0 343 3.58172 343 8V121C343 125.418 339.418 129 335 129H7.99999C3.58172 129 0 125.418 0 121V8Z" fill="white"/>
</clipPath>
</defs>
</svg>